<svg preserveAspectRatio="none" overflow="visible" style="display: block;" width="32" height="36" viewBox="0 0 32 36" fill="none" xmlns="http://www.w3.org/2000/svg">
<g id="file-zip">
<path id="Mask" d="M30.892 8.892L22.82 0.82C22.294 0.296 21.582 0 20.84 0H3.964C1.774 0 0 1.776 0 3.966V32.036C0 34.226 1.774 36 3.964 36H28.034C30.226 36 32 34.226 32 32.036V11.568C32 10.564 31.6 9.602 30.892 8.892Z" fill="#F5F5F5"/>
<path id="Union" d="M11 27H7V25H11V27ZM15 23V25H11V23H15ZM11 23H7V21H11V23ZM15 21H11V19H15V21ZM11 19H7V17H11V19ZM15 17H11V15H15V17ZM11 15H7V13H11V15ZM15 13H11V11H15V13ZM11 11H7V9H11V11Z" fill="#7D00BE"/>
</g>
</svg>
