<svg preserveAspectRatio="none" overflow="visible" style="display: block;" width="32" height="24" viewBox="0 0 32 24" fill="none" xmlns="http://www.w3.org/2000/svg">
<g id="folder-team">
<path id="Stroke 1 Copy" d="M0 2.7015C0 1.2095 1.26414 0 2.82353 0L11.4618 0C11.7269 0 11.9777 0.111463 12.1433 0.302937L14.9067 3.49776H29.1765C30.7359 3.49776 32 4.70726 32 6.19926V21.2447C32 22.7367 30.7359 23.9462 29.1765 23.9462L28.7684 23.9474C28.5518 23.982 28.3291 24 28.1018 24H3.89818C3.67092 24 3.44819 23.982 3.23156 23.9474L2.82353 23.9462C1.26414 23.9462 0 22.7367 0 21.2447V2.7015Z" fill="#00A0F0"/>
<rect id="Rectangle 3463435" y="5" width="32" height="19" rx="3" fill="#48B6FF"/>
<path id="Union" d="M18.7275 15C20.535 15 22 16.3432 22 18H10C10 16.3433 11.4651 15.0002 13.2725 15L13.4414 15.0039C14.5102 15.0536 15.4429 15.574 16 16.3428C16.5862 15.5338 17.5886 15 18.7275 15ZM13.2725 11C14.4775 11 15.4551 11.8954 15.4551 13C15.4551 14.1046 14.4775 15 13.2725 15C12.0676 14.9998 11.0908 14.1045 11.0908 13C11.0908 11.8955 12.0676 11.0002 13.2725 11ZM18.7275 11C19.9325 11 20.9092 11.8955 20.9092 13C20.9092 14.1045 19.9325 15 18.7275 15C17.5225 15 16.5459 14.1046 16.5459 13C16.5459 11.8954 17.5225 11 18.7275 11Z" fill="#005A94"/>
</g>
</svg>
