<svg preserveAspectRatio="none" overflow="visible" style="display: block;" width="14.4" height="16" viewBox="0 0 14.4 16" fill="none" xmlns="http://www.w3.org/2000/svg">
<g id="Team Drive Icon">
<path id="team-drive-outline" d="M6.90128 5.08422C6.90128 5.90961 6.23698 6.57979 5.41684 6.57979C4.5967 6.57979 3.9324 5.91051 3.9324 5.08422C3.9324 4.25883 4.5967 3.58865 5.41684 3.58865C6.23698 3.58865 6.90128 4.25793 6.90128 5.08422ZM10.6111 5.08422C10.6111 5.90961 9.94675 6.57979 9.12661 6.57979C8.30647 6.57979 7.64217 5.91051 7.64217 5.08422C7.64217 4.25883 8.30647 3.58865 9.12661 3.58865C9.94675 3.58865 10.6111 4.25793 10.6111 5.08422ZM9.1275 6.57889C8.38572 6.57889 7.64306 6.95301 7.27262 7.55052C6.90128 6.95211 6.15951 6.57889 5.41773 6.57889C4.15591 6.57889 3.19151 7.55052 3.19151 8.8218H11.3546C11.3546 7.55052 10.3893 6.57889 9.1275 6.57889ZM12.0216 0H2.37493C1.0392 0 0 1.12145 0 2.39273V13.6073C0 14.953 1.11311 16 2.37493 16H12.0216C13.3573 16 14.3965 14.8785 14.3965 13.6073V2.39273C14.4704 1.12145 13.3573 0 12.0216 0ZM2.37404 1.19592H12.0207C12.7625 1.19592 13.3564 1.79433 13.3564 2.54166V10.9902C12.9851 10.766 12.5399 10.6161 12.0207 10.6161H2.37404C1.9288 10.6161 1.48355 10.766 1.03831 10.9902V2.4672C1.11222 1.71986 1.63226 1.19592 2.37404 1.19592ZM13.2825 13.6817C13.2825 14.4291 12.6886 15.0275 11.9468 15.0275H2.30013C1.55835 15.0275 0.964398 14.4291 0.964398 13.6817V12.9344C0.964398 12.1871 1.55835 11.5887 2.30013 11.5887H11.9468C12.6886 11.5887 13.2825 12.1871 13.2825 12.9344V13.6817ZM11.2789 12.5603H8.97879C8.53355 12.5603 8.23701 12.859 8.23701 13.3076C8.23701 13.7562 8.53355 14.055 8.97879 14.055H11.2789C11.7242 14.055 12.0207 13.7562 12.0207 13.3076C12.0207 12.859 11.7242 12.5603 11.2789 12.5603Z" fill="#18181A"/>
</g>
</svg>
