<svg width="31" height="33" viewBox="0 0 31 33" fill="none" xmlns="http://www.w3.org/2000/svg" aria-label="Rakuten Drive">
  <rect x="7" y="0" width="6" height="7" fill="#00B900"/><rect x="7" y="7" width="6" height="7" fill="#7D00BE"/><rect x="7" y="14" width="6" height="7" fill="#00A0F0"/>
  <path d="M14 0h1c3 0 5 1 7 3l-4 4c-1-1-2-1-4-1V0Z" fill="#F59600"/><path d="M14 15c2 0 3 0 4-1l4 4c-2 2-4 3-7 3h-1v-6Z" fill="#002896"/><path d="M18 7c2 2 2 5 0 7l4 4c4-4 4-11 0-15l-4 4Z" fill="#FF41BE"/>
  <text x="0" y="30" fill="#002896" font-family="Arial, sans-serif" font-size="7" font-weight="700">Rakuten</text>
</svg>
