<svg preserveAspectRatio="none" overflow="visible" style="display: block;" width="16" height="16" viewBox="0 0 16 16" fill="none" xmlns="http://www.w3.org/2000/svg">
<g id="link">
<path d="M8.00002 2.80669L8.86557 3.67225L10.5967 1.94113C11.5527 0.985065 13.1028 0.985065 14.0589 1.94113C15.0149 2.8972 15.0149 4.44729 14.0589 5.40336L10.5967 8.86558C9.64061 9.82165 8.09053 9.82165 7.13447 8.86558L6.26892 9.73114C7.70301 11.1652 10.0281 11.1652 11.4622 9.73114L14.9244 6.26892C16.3585 4.83481 16.3585 2.50968 14.9244 1.07558C13.4903 -0.358525 11.1652 -0.358526 9.73112 1.07558L8.00002 2.80669Z" fill="#002896"/>
<path d="M1.07557 9.73108C-0.358523 11.1652 -0.358523 13.4903 1.07557 14.9244C2.50966 16.3585 4.83478 16.3585 6.26888 14.9244L7.99998 13.1933L7.13443 12.3278L5.40332 14.0589C4.44726 15.0149 2.89718 15.0149 1.94112 14.0589C0.985059 13.1028 0.985059 11.5527 1.94112 10.5966L5.40332 7.13442C6.35939 6.17835 7.90947 6.17835 8.86553 7.13442L9.73108 6.26886C8.29699 4.83476 5.97186 4.83476 4.53777 6.26886L1.07557 9.73108Z" fill="#002896"/>
</g>
</svg>
